HIERARCHY
ROOT Hips
{
	OFFSET -3.958830 18.904000 13.208200
	CHANNELS 6 Xposition Yposition Zposition Zrotation Yrotation Xrotation 
	JOINT LHipJoint
	{
		OFFSET 0.000000 0.000000 0.000000
		CHANNELS 3 Zrotation Yrotation Xrotation
		JOINT LeftUpLeg
		{
			OFFSET 1.800000 -1.400000 0.085000
			CHANNELS 3 Zrotation Yrotation Xrotation
			JOINT LeftLeg
			{
				OFFSET 2.215000 -6.000000 0.000000
				CHANNELS 3 Zrotation Yrotation Xrotation
				JOINT LeftFoot
				{
					OFFSET 2.500000 -6.900000 0.000000
					CHANNELS 3 Zrotation Yrotation Xrotation
					JOINT LeftToeBase
					{
						OFFSET 0.200000 -0.500000 1.950000
						CHANNELS 3 Zrotation Yrotation Xrotation
						End Site
						{
							OFFSET 0.000000 0.000000 0.000000
						}
					}
				}
			}
		}
	}
	JOINT RHipJoint
	{
		OFFSET 0.000000 0.000000 0.000000
		CHANNELS 3 Zrotation Yrotation Xrotation
		JOINT RightUpLeg
		{
			OFFSET -1.800000 -1.400000 0.085000
			CHANNELS 3 Zrotation Yrotation Xrotation
			JOINT RightLeg
			{
				OFFSET -2.215000 -6.000000 0.000000
				CHANNELS 3 Zrotation Yrotation Xrotation
				JOINT RightFoot
				{
					OFFSET -2.500000 -6.900000 0.000000
					CHANNELS 3 Zrotation Yrotation Xrotation
					JOINT RightToeBase
					{
						OFFSET -0.200000 -0.500000 1.950000
						CHANNELS 3 Zrotation Yrotation Xrotation
						End Site
						{
							OFFSET 0.000000 0.000000 0.000000
						}
					}
				}
			}
		}
	}
	JOINT LowerBack
	{
		OFFSET 0.000000 0.000000 0.000000
		CHANNELS 3 Zrotation Yrotation Xrotation
		JOINT Spine
		{
			OFFSET -0.087000 1.940000 -0.288900
			CHANNELS 3 Zrotation Yrotation Xrotation
			JOINT Spine1
			{
				OFFSET 0.000000 1.950000 0.060000
				CHANNELS 3 Zrotation Yrotation Xrotation
				JOINT Neck
				{
					OFFSET 0.000000 0.000000 0.000000
					CHANNELS 3 Zrotation Yrotation Xrotation
					JOINT Neck1
					{
						OFFSET 0.000000 1.600000 0.340000
						CHANNELS 3 Zrotation Yrotation Xrotation
						JOINT Head
						{
							OFFSET 0.000000 1.667000 -0.240000
							CHANNELS 3 Zrotation Yrotation Xrotation
							End Site
							{
								OFFSET 0.000000 0.000000 0.000000
							}
						}
					}
				}
				JOINT LeftShoulder
				{
					OFFSET 0.000000 0.000000 0.000000
					CHANNELS 3 Zrotation Yrotation Xrotation
					JOINT LeftArm
					{
						OFFSET 2.700000 1.550000 -0.730000
						CHANNELS 3 Zrotation Yrotation Xrotation
						JOINT LeftForeArm
						{
							OFFSET 5.450000 0.000000 0.000000
							CHANNELS 3 Zrotation Yrotation Xrotation
							JOINT LeftHand
							{
								OFFSET 3.450000 0.000000 0.000000
								CHANNELS 3 Zrotation Yrotation Xrotation
								JOINT LeftHandIndex1
								{
									OFFSET 0.750000 0.000000 0.000000
									CHANNELS 3 Zrotation Yrotation Xrotation
									End Site
									{
										OFFSET 0.000000 0.000000 0.000000
									}
								}
							}
						}
					}
				}
				JOINT RightShoulder
				{
					OFFSET 0.000000 0.000000 0.000000
					CHANNELS 3 Zrotation Yrotation Xrotation
					JOINT RightArm
					{
						OFFSET -2.700000 1.550000 -0.730000
						CHANNELS 3 Zrotation Yrotation Xrotation
						JOINT RightForeArm
						{
							OFFSET -5.450000 0.000000 0.000000
							CHANNELS 3 Zrotation Yrotation Xrotation
							JOINT RightHand
							{
								OFFSET -3.450000 0.000000 0.000000
								CHANNELS 3 Zrotation Yrotation Xrotation
								JOINT RightHandIndex1
								{
									OFFSET -0.750000 0.000000 0.000000
									CHANNELS 3 Zrotation Yrotation Xrotation
									End Site
									{
										OFFSET 0.000000 0.000000 0.000000
									}
								}
							}
						}
					}
				}
			}
		}
	}
}
MOTION
Frames: 9
Frame Time: 0.016667
3.173330 16.718900 -1.290090 4.865607 27.893533 -9.655893 -14.997938 11.637440 3.986563 14.672228 -1.154655 -10.492393 -33.434523 24.373856 33.885972 1.568974 10.872092 0.837818 0.350510 0.239670 0.249420 18.507168 -11.118940 2.782349 2.288535 1.498552 -9.552657 6.650160 -5.375012 17.940939 -0.369728 -3.683118 3.005515 0.067270 -0.042400 0.111510 -4.890258 1.375883 -8.663383 18.081445 -1.452887 19.455041 -9.029952 2.893146 12.885080 2.019035 1.938150 -16.540463 2.964247 -10.016498 36.191984 4.355230 -11.237880 -12.561180 -4.717832 -24.857098 12.104632 3.974957 0.371282 -0.498022 11.594416 -3.918335 -0.442886 -3.778758 2.910095 0.283530 -0.162770 0.110890 0.069720 0.052610 27.700727 7.934020 14.326387 20.210279 -12.722494 -9.994190 73.886225 -10.554375 1.950076 -1.669656 0.055880 0.044120 -0.082980 0.006870 
3.159080 16.839470 -1.284940 4.360953 27.306158 -8.279314 -14.941363 11.947325 3.463702 10.205735 -1.029483 -8.647200 -26.769016 19.527522 31.217748 1.156934 9.385615 1.325998 0.290520 0.155110 0.199280 18.532470 -11.292109 2.961987 2.125496 1.062068 -9.831881 7.714910 -5.072487 13.584487 -0.289750 -3.503670 3.079547 0.042750 0.034190 0.127620 -5.038533 1.359361 -8.401439 18.484830 -1.434058 17.076011 -9.649160 2.168164 12.525165 2.285046 1.496798 -15.425885 2.167282 -9.156233 35.184140 3.393310 -10.890690 -9.906760 -4.623380 -23.157499 11.513890 4.038169 0.437849 -0.258363 11.079705 -4.467477 -0.419277 -3.823037 2.948567 0.233040 -0.097770 0.041650 0.071210 -0.512116 25.777917 7.237898 12.354307 19.574568 -11.444325 -16.718890 77.363845 -15.337250 1.955050 -1.566408 0.027390 0.038660 -0.043100 0.015180 
3.143560 16.935130 -1.284230 3.991434 26.391622 -6.665818 -14.880569 12.093786 3.028601 5.900910 -0.699875 -7.188229 -20.606968 15.256065 28.083391 0.776547 7.808682 1.879537 0.255350 0.122030 0.140720 18.593247 -11.463935 3.121624 2.031105 0.949982 -10.768508 8.590227 -4.737895 10.167287 -0.211888 -3.423735 3.127831 0.047650 0.128260 0.151720 -5.210995 1.588284 -8.131931 18.875660 -0.982915 14.409206 -10.467357 1.991716 12.760436 2.558196 1.389316 -14.419730 2.223020 -8.654433 33.131003 2.192080 -10.455220 -6.696690 -3.245940 -21.084056 10.592033 3.704898 -0.932013 -0.084669 10.686817 -4.438945 -0.396535 -3.921616 2.994659 0.135240 -0.003430 -0.039390 0.096510 -2.329802 23.322739 6.932467 12.323305 18.023546 -11.251729 -33.129079 80.724571 -28.412312 1.840951 -1.224898 0.020220 0.026670 -0.024790 0.045380 
3.119560 17.012650 -1.297900 2.933724 25.627024 -5.428027 -14.867710 12.295687 2.804754 3.005057 -0.442992 -6.226971 -15.359397 11.712719 24.441725 0.442096 6.401090 2.380311 0.193970 0.045840 0.105870 18.593784 -11.494014 3.244242 2.481446 1.433161 -12.688652 9.571973 -4.716460 9.824107 -0.134760 -3.333801 3.165239 0.018940 0.179890 0.157160 -5.223592 1.465180 -7.971980 19.572137 -1.005456 13.337639 -10.544466 1.529020 11.219367 2.686803 1.131959 -13.583026 1.786848 -8.540961 31.391802 0.893170 -10.008120 -4.882110 -2.482585 -19.024804 9.901253 3.489652 -0.302834 0.078984 9.615400 -6.930929 -0.320196 -3.928047 3.022619 0.092560 0.052510 -0.094550 0.083110 -3.446598 20.985775 6.120332 11.909116 15.088106 -12.020357 -61.361650 85.796215 -52.047435 1.481994 0.552668 -0.004110 0.020770 0.008950 0.043670 
3.099440 17.096070 -1.328950 1.292749 24.143729 -5.068394 -14.855628 12.536427 2.726346 1.497853 0.004929 -4.703829 -11.459121 9.003089 19.643798 0.232639 5.293004 2.813866 0.135820 -0.020990 0.053570 18.584951 -11.403336 3.336238 2.781383 2.376792 -14.856024 11.511107 -5.283879 12.415212 -0.092565 -3.420780 3.143732 -0.015680 0.240400 0.156730 -5.197064 1.026446 -7.907208 21.892694 -1.930311 13.412761 -11.725132 1.161302 11.411883 2.888607 -0.094277 -14.331388 -0.407264 -8.136673 29.786493 0.229000 -10.008310 -3.410110 -1.191576 -15.934104 8.613428 1.991843 0.506694 -0.092832 10.365476 -9.482431 -0.330177 -3.928025 3.038002 0.058040 0.094170 -0.139760 0.091190 -5.269334 18.642969 9.021305 8.418874 14.587232 -5.023514 -98.036183 73.023846 -76.265207 1.507198 2.612550 -0.023080 0.030330 0.033690 0.060520 
3.054300 17.179810 -1.377920 -0.130544 23.121386 -4.948644 -14.838526 12.530350 2.671032 0.607528 0.241123 -3.401881 -8.721919 7.194696 15.439596 0.102633 4.604879 3.096489 0.107230 -0.049730 0.002510 18.612762 -11.271965 3.441667 1.619202 4.052114 -17.903161 15.678335 -6.869423 17.440178 -0.143438 -3.997768 2.926612 -0.015180 0.297530 0.146580 -5.219069 0.948660 -7.866302 24.176732 -2.911086 13.938424 -13.028750 0.932518 11.415185 3.002689 -1.546384 -14.450377 -2.649944 -7.547781 28.354414 0.347900 -10.315130 -2.600680 -0.384574 -14.299390 8.116061 0.938913 0.955142 -0.096500 10.764089 -9.579542 -0.353774 -3.956706 3.056639 0.022530 0.125540 -0.190270 0.106680 -6.280635 18.168306 9.705538 5.559866 12.630289 -4.638919 -102.513519 67.387390 -78.756665 1.841297 1.018915 -0.043940 0.047680 0.053250 0.079780 
2.997900 17.260030 -1.440980 -1.641866 22.062770 -5.439044 -14.836884 12.469898 2.582654 0.843913 0.342930 -2.406070 -7.088419 6.237376 12.634805 0.059176 4.288869 3.239651 0.114980 -0.035720 -0.019850 18.641833 -10.994128 3.662508 -0.738509 6.332909 -21.000864 21.158815 -9.595909 23.854416 -0.368243 -5.167118 2.496953 -0.002210 0.325280 0.138320 -5.198517 0.783902 -7.921667 26.200197 -4.066463 15.697149 -13.899631 0.648071 11.099344 3.054760 -2.903360 -14.404954 -4.782368 -7.040235 27.337828 1.020270 -10.817020 -3.093160 -0.059099 -12.967127 7.714123 0.098058 1.163307 -0.127566 11.787795 -8.743485 -0.397033 -3.963817 3.070259 0.014090 0.125540 -0.201480 0.133570 -6.624803 17.817849 9.979725 3.411284 10.554599 -4.914541 -107.512050 63.736681 -84.346979 2.120370 -0.083147 -0.049480 0.071330 0.046490 0.100920 
2.956480 17.336100 -1.492890 -2.777607 21.506384 -6.316121 -14.823059 12.208210 2.460632 1.280188 0.555352 -0.640672 -6.162994 5.638432 9.972964 0.081231 4.128399 3.295385 0.166750 0.054150 -0.011440 18.713973 -10.694185 3.981080 -4.351394 8.498482 -23.427602 28.216763 -13.311747 29.109419 -0.738321 -6.784426 1.914421 0.044200 0.308840 0.158270 -5.258753 0.944552 -8.057969 28.178866 -5.298911 17.297095 -15.774070 0.407144 11.837462 3.689336 -3.341967 -14.398069 -5.055554 -6.551960 26.036464 0.719870 -10.360810 -3.597000 1.008615 -12.332155 7.785926 -0.127493 2.163110 -0.145226 13.037643 -8.789265 -0.399815 -3.966093 3.159884 -0.035540 0.133630 -0.192960 0.149280 -8.870723 17.754111 9.784662 3.059991 9.963350 -6.404691 -107.602026 60.997106 -82.345962 2.143706 -0.561373 -0.002790 0.040490 0.016730 0.124310 
2.910630 17.401050 -1.552030 -4.172840 21.177757 -8.157257 -14.814186 11.867748 2.305493 1.680144 0.844681 1.914005 -4.449876 5.034953 7.496443 0.101025 4.108222 3.330193 0.176350 0.090780 -0.039640 18.798685 -10.349605 4.357661 -8.924153 9.908582 -24.448651 38.549357 -17.734109 30.891691 -1.156332 -8.447330 1.362903 0.091950 0.357300 0.162460 -5.326990 1.149359 -8.214585 30.502568 -7.192706 19.522131 -17.875032 -0.002743 13.879149 4.267684 -3.969155 -14.984694 -5.411137 -5.698366 24.064280 0.726630 -10.093710 -3.161270 4.668714 -11.250894 7.866564 -3.599430 1.556099 -0.442058 15.541663 -6.298154 -0.461773 -4.095222 3.208196 -0.103960 0.176770 -0.235360 0.165060 -13.412701 17.686309 10.524049 6.663092 7.843419 -9.448710 -106.054613 57.582378 -78.439455 2.167765 -1.028670 -0.002380 0.049130 0.021770 0.150520 
